<svg
  width="905"
  height="160"
  viewBox="0 0 905 160"
  xmlns="http://www.w3.org/2000/svg"
  fill="none"
>
  <path fill-rule="evenodd" clip-rule="evenodd" d="M80 0C73.7868 0 68.75 5.0368 68.75 11.25V148.75C68.75 154.963 73.7868 160 80 160C86.2132 160 91.25 154.963 91.25 148.75V11.25C91.25 5.0368 86.2132 0 80 0ZM34.375 51.25C34.375 45.0368 39.4118 40 45.625 40C51.8382 40 56.875 45.0368 56.875 51.25V108.75C56.875 114.963 51.8382 120 45.625 120C39.4118 120 34.375 114.963 34.375 108.75V51.25ZM0 71.25C0 65.0368 5.0368 60 11.25 60C17.4632 60 22.5 65.0368 22.5 71.25V88.75C22.5 94.9632 17.4632 100 11.25 100C5.0368 100 0 94.9632 0 88.75V71.25ZM103.125 36.25C103.125 30.0368 108.162 25 114.375 25C120.588 25 125.625 30.0368 125.625 36.25V123.75C125.625 129.963 120.588 135 114.375 135C108.162 135 103.125 129.963 103.125 123.75V36.25ZM148.75 91.25C154.963 91.25 160 86.2132 160 80C160 73.7868 154.963 68.75 148.75 68.75C142.537 68.75 137.5 73.7868 137.5 80C137.5 86.2132 142.537 91.25 148.75 91.25Z" fill="currentColor"/>
  <path d="M827.025 62.6861C827.025 61.4831 828 60.5079 829.203 60.5079H838.594C839.797 60.5079 840.772 61.4831 840.772 62.6861V116.659C840.772 117.862 839.797 118.837 838.594 118.837H829.203C828 118.837 827.025 117.862 827.025 116.659V62.6861Z" fill="currentColor"/>
  <path d="M833.937 52.2294C831.76 52.2294 829.886 51.5079 828.317 50.0648C826.747 48.5965 825.962 46.8369 825.962 44.7863C825.962 42.7103 826.747 40.9508 828.317 39.5078C829.886 38.0394 831.76 37.3052 833.937 37.3052C836.139 37.3052 838.013 38.0394 839.557 39.5078C841.127 40.9508 841.911 42.7103 841.911 44.7863C841.911 46.8369 841.127 48.5965 839.557 50.0648C838.013 51.5079 836.139 52.2294 833.937 52.2294Z" fill="currentColor"/>
  <path d="M643.056 62.4446C641.942 62.4446 641.033 61.5959 640.743 60.5211C640.092 58.1129 638.717 56.1718 636.617 54.6978C634.009 52.8497 630.617 51.9256 626.44 51.9256C623.503 51.9256 620.984 52.3686 618.883 53.2547C616.781 54.1408 615.174 55.3433 614.06 56.8623C612.946 58.3813 612.376 60.1155 612.351 62.0649C612.351 63.6852 612.718 65.0903 613.452 66.2801C614.212 67.47 615.237 68.4827 616.528 69.3181C617.819 70.1283 619.25 70.8118 620.819 71.3688C622.389 71.9257 623.971 72.3941 625.566 72.7739L632.857 74.5966C635.794 75.2802 638.617 76.2043 641.326 77.3688C644.06 78.5334 646.503 80.0018 648.655 81.7739C650.832 83.5461 652.554 85.6853 653.82 88.1917C655.085 90.698 655.718 93.6348 655.718 97.0019C655.718 101.559 654.554 105.572 652.225 109.04C649.895 112.483 646.528 115.179 642.123 117.129C637.743 119.053 632.44 120.015 626.212 120.015C620.161 120.015 614.908 119.078 610.452 117.205C606.022 115.331 602.553 112.597 600.047 109.002C597.936 105.943 596.65 102.316 596.188 98.1216C596.053 96.8926 597.05 95.8626 598.287 95.8626H607.861C609.001 95.8626 609.926 96.748 610.164 97.8628C610.557 99.7007 611.298 101.287 612.389 102.622C613.857 104.42 615.769 105.761 618.123 106.648C620.503 107.534 623.161 107.977 626.098 107.977C629.161 107.977 631.845 107.521 634.148 106.61C636.478 105.673 638.3 104.382 639.617 102.736C640.933 101.065 641.604 99.1158 641.63 96.888C641.604 94.8626 641.009 93.1917 639.845 91.8752C638.68 90.5335 637.047 89.4195 634.946 88.5335C632.87 87.6221 630.44 86.8119 627.655 86.1031L618.807 83.8245C612.401 82.179 607.338 79.6853 603.617 76.3435C599.92 72.9764 598.072 68.508 598.072 62.9383C598.072 58.356 599.313 54.3433 601.794 50.9003C604.3 47.4572 607.705 44.7863 612.009 42.8875C616.313 40.9635 621.186 40.0014 626.629 40.0014C632.148 40.0014 636.984 40.9635 641.136 42.8875C645.313 44.7863 648.592 47.4319 650.971 50.8243C652.943 53.6133 654.123 56.7497 654.514 60.2334C654.65 61.4436 653.656 62.4446 652.439 62.4446H643.056Z" fill="currentColor"/>
  <path d="M738.628 94.3056V62.6861C738.628 61.4831 739.603 60.5079 740.806 60.5079H750.197C751.4 60.5079 752.375 61.4831 752.375 62.6861V116.659C752.375 117.862 751.4 118.837 750.197 118.837H741.224C740.021 118.837 739.046 117.862 739.046 116.659V108.47H738.438C737.122 111.736 734.957 114.407 731.945 116.483C728.957 118.559 725.274 119.597 720.894 119.597C717.071 119.597 713.691 118.749 710.754 117.053C707.843 115.331 705.565 112.837 703.919 109.572C702.273 106.28 701.451 102.306 701.451 97.6474V62.6861C701.451 61.4831 702.426 60.5079 703.629 60.5079H713.019C714.222 60.5079 715.198 61.4831 715.198 62.6861V95.5208C715.198 99.2171 716.21 102.154 718.236 104.331C720.261 106.508 722.919 107.597 726.21 107.597C728.236 107.597 730.198 107.103 732.096 106.116C733.995 105.129 735.552 103.66 736.767 101.711C738.008 99.7361 738.628 97.2677 738.628 94.3056Z" fill="currentColor"/>
  <path fill-rule="evenodd" clip-rule="evenodd" d="M772.431 116.331C776.051 118.686 780.153 119.863 784.735 119.863C788.077 119.863 790.849 119.306 793.051 118.192C795.254 117.078 797.026 115.736 798.368 114.167C799.71 112.572 800.735 111.065 801.444 109.648H802.279V116.659C802.279 117.862 803.255 118.837 804.457 118.837H813.62C814.823 118.837 815.798 117.862 815.798 116.659V43.2429C815.798 42.0399 814.823 41.0648 813.62 41.0648H804.192C802.989 41.0648 802.014 42.0399 802.014 43.2429V70.1536H801.444C800.735 68.7358 799.735 67.2295 798.444 65.6345C797.153 64.0143 795.406 62.6345 793.203 61.4953C791.001 60.3307 788.191 59.7484 784.773 59.7484C780.292 59.7484 776.229 60.9003 772.583 63.2042C768.937 65.4826 766.039 68.8624 763.887 73.3435C761.76 77.7992 760.697 83.2676 760.697 89.7486C760.697 96.1538 761.747 101.597 763.849 106.078C765.95 110.559 768.811 113.977 772.431 116.331ZM796.013 106.23C793.963 107.799 791.482 108.584 788.57 108.584C785.558 108.584 783.013 107.774 780.937 106.154C778.887 104.508 777.33 102.268 776.266 99.4323C775.229 96.5715 774.71 93.3183 774.71 89.6727C774.71 86.0524 775.229 82.8372 776.266 80.027C777.305 77.2169 778.849 75.0144 780.9 73.4194C782.95 71.8245 785.507 71.027 788.57 71.027C791.532 71.027 794.026 71.7992 796.052 73.3435C798.102 74.8878 799.646 77.0523 800.684 79.8372C801.748 82.622 802.279 85.9005 802.279 89.6727C802.279 93.4449 801.748 96.7487 800.684 99.5842C799.621 102.42 798.064 104.635 796.013 106.23Z" fill="currentColor"/>
  <path fill-rule="evenodd" clip-rule="evenodd" d="M862.119 116.217C866.297 118.724 871.233 119.977 876.93 119.977C882.626 119.977 887.563 118.724 891.74 116.217C895.917 113.711 899.145 110.205 901.423 105.698C903.727 101.192 904.879 95.9259 904.879 89.9006C904.879 83.8752 903.727 78.5967 901.423 74.065C899.145 69.5333 895.917 66.0143 891.74 63.508C887.563 61.0016 882.626 59.7484 876.93 59.7484C871.233 59.7484 866.297 61.0016 862.119 63.508C857.942 66.0143 854.702 69.5333 852.398 74.065C850.119 78.5967 848.98 83.8752 848.98 89.9006C848.98 95.9259 850.119 101.192 852.398 105.698C854.702 110.205 857.942 113.711 862.119 116.217ZM884.753 106.42C882.677 108.116 880.094 108.964 877.006 108.964C873.841 108.964 871.208 108.116 869.107 106.42C867.031 104.698 865.474 102.394 864.436 99.5082C863.423 96.6221 862.917 93.4069 862.917 89.8626C862.917 86.2929 863.423 83.0651 864.436 80.1789C865.474 77.2675 867.031 74.9511 869.107 73.2295C871.208 71.508 873.841 70.6472 877.006 70.6472C880.094 70.6472 882.677 71.508 884.753 73.2295C886.828 74.9511 888.373 77.2675 889.385 80.1789C890.423 83.0651 890.942 86.2929 890.942 89.8626C890.942 93.4069 890.423 96.6221 889.385 99.5082C888.373 102.394 886.828 104.698 884.753 106.42Z" fill="currentColor"/>
  <path d="M691.198 60.5079C692.401 60.5079 693.376 61.4831 693.376 62.686V68.9628C693.376 70.1657 692.401 71.1409 691.198 71.1409H683.11C682.425 71.1409 681.869 71.6964 681.869 72.3815V101.293C681.869 103.141 682.148 104.559 682.705 105.546C683.287 106.508 684.047 107.166 684.983 107.521C685.92 107.875 686.958 108.053 688.097 108.053C688.958 108.053 689.743 107.989 690.452 107.863C691.367 107.705 692.286 108.281 692.482 109.189L694.032 116.379C694.264 117.457 693.652 118.533 692.582 118.799C692.188 118.898 691.756 118.999 691.287 119.103C689.945 119.407 688.3 119.584 686.35 119.635C682.907 119.736 679.806 119.217 677.046 118.078C674.287 116.913 672.097 115.116 670.477 112.685C668.882 110.255 668.097 107.217 668.122 103.571V72.3815C668.122 71.6964 667.567 71.1409 666.882 71.1409H662.022C660.819 71.1409 659.844 70.1657 659.844 68.9628V62.686C659.844 61.4831 660.819 60.5079 662.022 60.5079H666.882C667.567 60.5079 668.122 59.9524 668.122 59.2673V48.7112C668.122 47.5083 669.097 46.5331 670.3 46.5331H679.691C680.894 46.5331 681.869 47.5083 681.869 48.7112V59.2673C681.869 59.9524 682.425 60.5079 683.11 60.5079H691.198Z" fill="currentColor"/>
  <path d="M242.034 62.4313C240.921 62.4313 240.011 61.5825 239.721 60.5077C239.07 58.0995 237.695 56.1584 235.595 54.6844C232.988 52.8363 229.595 51.9122 225.418 51.9122C222.481 51.9122 219.962 52.3552 217.861 53.2413C215.76 54.1274 214.152 55.3299 213.038 56.8489C211.924 58.3679 211.354 60.1021 211.329 62.0515C211.329 63.6718 211.696 65.0769 212.43 66.2667C213.19 67.4566 214.215 68.4693 215.506 69.3047C216.798 70.1149 218.228 70.7984 219.798 71.3554C221.367 71.9123 222.949 72.3807 224.544 72.7605L231.836 74.5833C234.772 75.2668 237.595 76.1909 240.304 77.3554C243.038 78.52 245.481 79.9884 247.633 81.7605C249.81 83.5327 251.532 85.6719 252.798 88.1783C254.064 90.6846 254.697 93.6214 254.697 96.9885C254.697 101.545 253.532 105.558 251.203 109.027C248.874 112.47 245.507 115.166 241.102 117.115C236.722 119.039 231.418 120.001 225.19 120.001C219.139 120.001 213.886 119.065 209.43 117.191C205 115.318 201.532 112.584 199.025 108.989C196.914 105.93 195.628 102.303 195.167 98.1082C195.031 96.8792 196.029 95.8492 197.265 95.8492H206.839C207.979 95.8492 208.905 96.7346 209.143 97.8494C209.535 99.6873 210.277 101.274 211.367 102.609C212.835 104.406 214.747 105.748 217.101 106.634C219.481 107.52 222.139 107.963 225.076 107.963C228.139 107.963 230.823 107.508 233.127 106.596C235.456 105.659 237.279 104.368 238.595 102.723C239.912 101.052 240.583 99.1024 240.608 96.8746C240.583 94.8492 239.988 93.1783 238.823 91.8619C237.658 90.5201 236.026 89.4062 233.924 88.5201C231.848 87.6087 229.418 86.7985 226.633 86.0897L217.785 83.8112C211.38 82.1656 206.316 79.6719 202.595 76.3301C198.899 72.963 197.051 68.4946 197.051 62.9249C197.051 58.3426 198.291 54.3299 200.772 50.8869C203.278 47.4438 206.684 44.7729 210.987 42.8741C215.291 40.9501 220.165 39.9881 225.608 39.9881C231.127 39.9881 235.962 40.9501 240.114 42.8741C244.291 44.7729 247.57 47.4185 249.95 50.8109C251.921 53.5999 253.102 56.7363 253.492 60.2201C253.628 61.4302 252.635 62.4313 251.417 62.4313H242.034Z" fill="currentColor"/>
  <path d="M369.118 75.1112C369.31 76.2987 368.321 77.2795 367.118 77.2795H358.417C357.44 77.2795 356.605 76.6165 356.183 75.7356C355.847 75.0345 355.421 74.3593 354.904 73.7098C354.043 72.5959 352.879 71.6972 351.41 71.0136C349.942 70.3301 348.144 69.9883 346.018 69.9883C343.157 69.9883 340.752 70.6085 338.803 71.8491C336.879 73.0896 335.929 74.6972 335.955 76.6719C335.929 78.3681 336.549 79.7478 337.815 80.8111C339.106 81.8744 341.233 82.7479 344.195 83.4314L354.145 85.558C359.664 86.7479 363.765 88.634 366.448 91.2163C369.157 93.7986 370.524 97.1784 370.55 101.356C370.524 105.027 369.448 108.267 367.322 111.077C365.221 113.862 362.296 116.039 358.55 117.609C354.803 119.179 350.499 119.963 345.638 119.963C338.499 119.963 332.752 118.47 328.397 115.482C324.328 113.08 321.461 108.515 320.772 103.792C320.599 102.601 321.588 101.621 322.791 101.621H332.285C333.299 101.621 334.156 102.332 334.523 103.278C335.232 105.104 336.354 106.539 337.891 107.584C339.866 108.925 342.436 109.596 345.6 109.596C348.866 109.596 351.486 108.925 353.461 107.584C355.461 106.242 356.461 104.583 356.461 102.609C356.461 100.938 355.815 99.5581 354.524 98.4695C353.258 97.3809 351.284 96.5454 348.6 95.9632L338.651 93.8745C333.056 92.71 328.916 90.7479 326.233 87.9884C323.549 85.2036 322.22 81.6846 322.246 77.4314C322.22 73.8364 323.195 70.7225 325.17 68.0895C327.17 65.4313 329.942 63.3806 333.486 61.9376C337.056 60.4692 341.17 59.735 345.828 59.735C352.663 59.735 358.043 61.1907 361.967 64.1022C365.72 66.479 368.42 70.7887 369.118 75.1112Z" fill="currentColor"/>
  <path d="M424.396 75.1102C424.579 76.2992 423.59 77.2795 422.387 77.2795H413.685C412.708 77.2795 411.873 76.6165 411.451 75.7356C411.115 75.0345 410.689 74.3593 410.172 73.7098C409.312 72.5959 408.147 71.6972 406.679 71.0136C405.21 70.3301 403.413 69.9883 401.286 69.9883C398.425 69.9883 396.02 70.6085 394.071 71.8491C392.147 73.0896 391.197 74.6972 391.223 76.6719C391.197 78.3681 391.818 79.7478 393.084 80.8111C394.375 81.8744 396.501 82.7479 399.463 83.4314L409.413 85.558C414.932 86.7479 419.033 88.634 421.717 91.2163C424.426 93.7986 425.793 97.1784 425.818 101.356C425.793 105.027 424.717 108.267 422.59 111.077C420.489 113.862 417.565 116.039 413.818 117.609C410.071 119.179 405.767 119.963 400.906 119.963C393.767 119.963 388.02 118.47 383.666 115.482C379.619 113.112 376.735 108.522 376.042 103.792C375.867 102.601 376.856 101.621 378.059 101.621H387.553C388.568 101.621 389.424 102.332 389.791 103.278C390.5 105.104 391.623 106.539 393.16 107.584C395.134 108.925 397.704 109.596 400.868 109.596C404.134 109.596 406.755 108.925 408.729 107.584C410.729 106.242 411.729 104.583 411.729 102.609C411.729 100.938 411.084 99.5581 409.793 98.4695C408.527 97.3809 406.552 96.5454 403.868 95.9632L393.919 93.8745C388.324 92.71 384.185 90.7479 381.501 87.9884C378.818 85.2036 377.488 81.6846 377.514 77.4314C377.488 73.8364 378.463 70.7225 380.438 68.0895C382.438 65.4313 385.21 63.3806 388.754 61.9376C392.324 60.4692 396.438 59.735 401.096 59.735C407.932 59.735 413.312 61.1907 417.236 64.1022C421.168 66.4934 423.736 70.8086 424.396 75.1102Z" fill="currentColor"/>
  <path d="M435.91 118.824C434.707 118.824 433.732 117.849 433.732 116.646V62.6727C433.732 61.4697 434.707 60.4945 435.91 60.4945H445.3C446.503 60.4945 447.478 61.4697 447.478 62.6727V116.646C447.478 117.849 446.503 118.824 445.3 118.824H435.91ZM440.643 52.216C438.466 52.216 436.592 51.4945 435.023 50.0514C433.453 48.5831 432.668 46.8235 432.668 44.7729C432.668 42.6969 433.453 40.9374 435.023 39.4944C436.592 38.026 438.466 37.2918 440.643 37.2918C442.845 37.2918 444.719 38.026 446.263 39.4944C447.833 40.9374 448.618 42.6969 448.618 44.7729C448.618 46.8235 447.833 48.5831 446.263 50.0514C444.719 51.4945 442.845 52.216 440.643 52.216Z" fill="currentColor"/>
  <path d="M483.636 119.963C477.94 119.963 473.003 118.71 468.826 116.204C464.648 113.697 461.408 110.191 459.104 105.685C456.826 101.178 455.686 95.9125 455.686 89.8872C455.686 83.8618 456.826 78.5833 459.104 74.0516C461.408 69.5199 464.648 66.0009 468.826 63.4946C473.003 60.9882 477.94 59.735 483.636 59.735C489.332 59.735 494.269 60.9882 498.446 63.4946C502.623 66.0009 505.851 69.5199 508.13 74.0516C510.434 78.5833 511.585 83.8618 511.585 89.8872C511.585 95.9125 510.434 101.178 508.13 105.685C505.851 110.191 502.623 113.697 498.446 116.204C494.269 118.71 489.332 119.963 483.636 119.963ZM483.712 108.951C486.8 108.951 489.383 108.102 491.459 106.406C493.535 104.685 495.079 102.381 496.092 99.4948C497.13 96.6087 497.649 93.3935 497.649 89.8492C497.649 86.2795 497.13 83.0517 496.092 80.1656C495.079 77.2542 493.535 74.9377 491.459 73.2162C489.383 71.4946 486.8 70.6339 483.712 70.6339C480.547 70.6339 477.914 71.4946 475.813 73.2162C473.737 74.9377 472.18 77.2542 471.142 80.1656C470.129 83.0517 469.623 86.2795 469.623 89.8492C469.623 93.3935 470.129 96.6087 471.142 99.4948C472.18 102.381 473.737 104.685 475.813 106.406C477.914 108.102 480.547 108.951 483.712 108.951Z" fill="currentColor"/>
  <path d="M533.578 84.6466V116.646C533.578 117.849 532.603 118.824 531.4 118.824H522.009C520.806 118.824 519.831 117.849 519.831 116.646V62.6727C519.831 61.4697 520.806 60.4945 522.009 60.4945H530.792C531.995 60.4945 532.971 61.4697 532.971 62.6727V70.406H533.654C534.996 67.1402 537.135 64.5452 540.072 62.6211C543.034 60.6971 546.692 59.735 551.047 59.735C555.072 59.735 558.578 60.5958 561.566 62.3173C564.578 64.0389 566.908 66.5326 568.553 69.7984C570.224 73.0642 571.047 77.0263 571.021 81.6846V116.646C571.021 117.849 570.046 118.824 568.843 118.824H559.453C558.25 118.824 557.275 117.849 557.275 116.646V83.8112C557.275 79.9124 556.262 76.8617 554.237 74.6592C552.237 72.4566 549.464 71.3554 545.92 71.3554C543.515 71.3554 541.376 71.887 539.502 72.9503C537.654 73.9883 536.198 75.4947 535.135 77.4693C534.097 79.444 533.578 81.8365 533.578 84.6466Z" fill="currentColor"/>
  <path fill-rule="evenodd" clip-rule="evenodd" d="M273.898 116.356C278.151 118.786 283.202 120.001 289.05 120.001C293.582 120.001 297.607 119.318 301.126 117.951C304.645 116.558 307.531 114.609 309.785 112.103C311.67 110.163 313.302 107.067 314.201 104.139C314.594 102.859 313.576 101.659 312.236 101.659H303.1C302.188 101.659 301.389 102.237 300.978 103.051C300.427 104.141 299.73 105.123 298.886 105.913C297.696 107.027 296.291 107.875 294.67 108.457C293.05 109.014 291.24 109.292 289.24 109.292C286.253 109.292 283.645 108.659 281.417 107.394C279.189 106.102 277.455 104.254 276.215 101.849C275.016 99.5009 274.396 96.7034 274.356 93.4568H312.809C314.012 93.4568 314.987 92.4816 314.987 91.2787V89.2416C314.987 84.1276 314.278 79.7225 312.86 76.0263C311.443 72.3048 309.493 69.2414 307.012 66.8364C304.557 64.4313 301.721 62.6591 298.506 61.5199C295.316 60.3553 291.924 59.773 288.329 59.773C282.759 59.773 277.911 61.0515 273.784 63.6085C269.658 66.1402 266.442 69.6845 264.139 74.2415C261.86 78.7732 260.721 84.039 260.721 90.0391C260.721 96.1404 261.86 101.444 264.139 105.951C266.417 110.432 269.67 113.9 273.898 116.356ZM276.69 84.1908C275.437 84.1908 274.427 83.1311 274.677 81.9041C274.968 80.4783 275.455 79.1267 276.139 77.8491C277.329 75.6466 278.987 73.8744 281.113 72.5326C283.24 71.1655 285.708 70.482 288.519 70.482C291.151 70.482 293.455 71.0769 295.43 72.2668C297.43 73.4567 298.987 75.0896 300.101 77.1655C300.896 78.6284 301.413 80.2394 301.654 81.9986C301.818 83.1986 300.822 84.1909 299.611 84.1909L276.69 84.1908Z" fill="currentColor"/>
</svg>
