<?xml version="1.0" encoding="UTF-8" standalone="no"?>
<!DOCTYPE svg PUBLIC "-//W3C//DTD SVG 1.1//EN" "http://www.w3.org/Graphics/SVG/1.1/DTD/svg11.dtd">
<!-- Created with Vectornator (http://vectornator.io/) -->
<svg height="100%" stroke-miterlimit="10" style="fill-rule:nonzero;clip-rule:evenodd;stroke-linecap:round;stroke-linejoin:round;" version="1.1" viewBox="200.791 228.002 92.8804 29.3568" width="100%" xml:space="preserve" xmlns="http://www.w3.org/2000/svg" xmlns:vectornator="http://vectornator.io" xmlns:xlink="http://www.w3.org/1999/xlink">
<defs/>
<clipPath id="ArtboardFrame">
<rect height="29.3568" width="92.8804" x="200.791" y="228.002"/>
</clipPath>
<g clip-path="url(#ArtboardFrame)" id="Layer" vectornator:layerName="Layer">
<g opacity="1" vectornator:layerName="Group 8">
<path d="M204.087 228.002L204.04 240.192L208.617 235.644L212.977 235.644L206.87 241.549L213.424 249.706L209.209 249.706L204.559 243.772L204.04 244.292L204.04 249.706L200.791 249.706L200.839 228.002L204.087 228.002Z" fill="#6fd69f" fill-rule="nonzero" opacity="1" stroke="none"/>
<path d="M217.005 235.644L217.005 243.715C217.005 246.044 217.924 247.209 219.763 247.209C221.601 247.209 222.52 246.044 222.52 243.715L222.52 235.644L225.769 235.644L225.769 243.787C225.769 244.913 225.629 245.885 225.35 246.703C225.081 247.435 224.614 248.094 223.95 248.681C222.853 249.634 221.457 250.111 219.763 250.111C218.078 250.111 216.687 249.634 215.59 248.681C214.916 248.094 214.44 247.435 214.161 246.703C213.891 246.049 213.757 245.077 213.757 243.787L213.757 235.644L217.005 235.644Z" fill="#6fd69f" fill-rule="nonzero" opacity="1" stroke="none"/>
<path d="M231.27 235.627L231.27 249.706L228.021 249.706L228.021 235.627L231.27 235.627Z" fill="#6fd69f" fill-rule="nonzero" opacity="1" stroke="none"/>
<path d="M236.844 241.339L236.785 249.706L233.537 249.706L233.596 241.339L236.844 241.339ZM233.191 237.683C233.191 237.115 233.397 236.624 233.811 236.211C234.225 235.797 234.721 235.59 235.298 235.59C235.886 235.59 236.386 235.797 236.8 236.211C237.214 236.615 237.421 237.111 237.421 237.698C237.421 238.285 237.214 238.785 236.8 239.199C236.396 239.613 235.9 239.82 235.313 239.82C234.726 239.82 234.225 239.613 233.811 239.199C233.397 238.785 233.191 238.28 233.191 237.683Z" fill="#6fd69f" fill-rule="nonzero" opacity="1" stroke="none"/>
<path d="M239.052 235.644L242.315 235.644L242.315 236.943C243.451 235.817 244.731 235.254 246.156 235.254C247.792 235.254 249.067 235.769 249.982 236.799C250.771 237.675 251.166 239.104 251.166 241.087L251.166 249.706L247.903 249.706L247.903 241.852C247.903 240.466 247.71 239.508 247.325 238.979C246.95 238.44 246.266 238.17 245.275 238.17C244.197 238.17 243.432 238.526 242.979 239.239C242.536 239.941 242.315 241.169 242.315 242.92L242.315 249.706L239.052 249.706L239.052 235.644Z" fill="#6fd69f" fill-rule="nonzero" opacity="1" stroke="none"/>
<path d="M263.785 235.644L267.048 235.644L267.048 249.706L263.785 249.706L263.785 248.234C262.447 249.485 261.008 250.111 259.468 250.111C257.523 250.111 255.916 249.408 254.645 248.003C253.384 246.568 252.754 244.778 252.754 242.632C252.754 240.524 253.384 238.767 254.645 237.362C255.906 235.956 257.485 235.254 259.381 235.254C261.017 235.254 262.485 235.928 263.785 237.275L263.785 235.644ZM256.075 242.632C256.075 243.979 256.436 245.077 257.157 245.924C257.899 246.78 258.832 247.209 259.958 247.209C261.162 247.209 262.134 246.795 262.875 245.967C263.616 245.11 263.987 244.023 263.987 242.704C263.987 241.385 263.616 240.298 262.875 239.441C262.134 238.603 261.171 238.185 259.987 238.185C258.871 238.185 257.937 238.608 257.186 239.455C256.445 240.312 256.075 241.371 256.075 242.632Z" fill="#6fd69f" fill-rule="nonzero" opacity="1" stroke="none"/>
<path d="M269.3 235.644L272.549 235.644L272.549 236.9C273.145 236.274 273.542 235.899 274.137 235.689C274.826 235.452 275.899 235.581 275.899 235.581L277.561 238.869C276.945 238.426 275.921 238.265 275.334 238.265C273.563 238.265 272.549 239.739 272.549 242.415L272.549 249.706L269.3 249.706L269.3 235.644Z" fill="#6fd69f" fill-rule="nonzero" opacity="1" stroke="none"/>
<path d="M284.243 247.093L277.919 235.644L281.688 235.644L285.99 243.729L290.004 235.644L293.671 235.644L282.468 257.359L278.757 257.359L284.243 247.093Z" fill="#6fd69f" fill-rule="nonzero" opacity="1" stroke="none"/>
</g>
</g>
</svg>
