<?xml version="1.0" encoding="UTF-8" standalone="no"?>
<!DOCTYPE svg PUBLIC "-//W3C//DTD SVG 1.1//EN" "http://www.w3.org/Graphics/SVG/1.1/DTD/svg11.dtd">
<!-- Created with Vectornator (http://vectornator.io/) -->
<svg height="100%" stroke-miterlimit="10" style="fill-rule:nonzero;clip-rule:evenodd;stroke-linecap:round;stroke-linejoin:round;" version="1.1" viewBox="34.3605 312.999 50.9688 70.9729" width="100%" xml:space="preserve" xmlns="http://www.w3.org/2000/svg" xmlns:vectornator="http://vectornator.io" xmlns:xlink="http://www.w3.org/1999/xlink">
<defs/>
<clipPath id="ArtboardFrame">
<rect height="70.9729" width="50.9688" x="34.3605" y="312.999"/>
</clipPath>
<g clip-path="url(#ArtboardFrame)" id="Layer" vectornator:layerName="Layer">
<g opacity="1" vectornator:layerName="Group 11">
<path d="M45.8605 312.999C39.5092 312.999 34.3607 318.148 34.3605 324.499C34.3605 325.396 34.3605 352.321 34.3605 353.218C34.3605 359.569 39.5092 364.718 45.8605 364.718L73.8292 364.718C80.1805 364.718 85.329 359.569 85.3292 353.218L85.3292 324.499C85.3292 318.148 80.1805 312.999 73.8292 312.999L45.8605 312.999ZM45.8605 315.999L52.8605 315.999C55.3052 316.13 56.2229 316.424 56.8605 316.812C57.5698 317.242 57.7355 317.997 57.7355 318.655C57.7355 319.162 57.614 319.619 57.3605 319.999C57.1072 320.379 56.754 320.793 56.298 321.249L41.7667 335.062C40.9561 335.872 40.2438 336.402 39.6105 336.655C39.0185 336.892 38.2416 337.012 37.3605 337.03C37.3605 331.053 37.3605 324.891 37.3605 324.499C37.3605 319.805 41.1661 315.999 45.8605 315.999ZM74.2355 316.093C78.7292 316.318 82.3291 319.949 82.3292 324.499L82.3292 353.218C82.3292 356.246 80.6501 358.775 78.2667 360.28C76.2849 361.285 74.6061 361.478 73.548 360.843C72.2813 360.083 71.0685 358.902 69.9542 357.28L52.1105 331.499L61.298 322.374C62.8686 320.854 64.7502 319.502 66.9542 318.312C69.0819 317.162 71.3109 316.128 74.2355 316.093ZM37.3605 341.249C38.7259 341.265 39.8102 341.411 40.4855 341.749C41.1948 342.104 41.8345 342.688 42.3917 343.499L52.173 357.03C52.629 357.689 52.9646 358.256 53.1417 358.687C53.3191 359.117 53.3917 359.476 53.3917 359.78C53.3917 360.461 52.6146 361.646 50.9855 361.718L45.8605 361.718C41.1661 361.718 37.3603 357.912 37.3605 353.218C37.3605 352.844 37.3605 346.896 37.3605 341.249Z" fill="#000000" fill-rule="nonzero" opacity="1" stroke="none" vectornator:layerName="K 9"/>
<g opacity="1" vectornator:layerName="Group 5">
<path d="M36.4995 368.087L36.4738 374.683L38.9503 372.222L41.3097 372.222L38.005 375.417L41.5519 379.831L39.2706 379.831L36.755 376.62L36.4738 376.902L36.4738 379.831L34.7159 379.831L34.7417 368.087L36.4995 368.087Z" fill="#000000" fill-rule="nonzero" opacity="1" stroke="none"/>
<path d="M43.4894 372.222L43.4894 376.589C43.4894 377.85 43.9868 378.48 44.9816 378.48C45.9764 378.48 46.4738 377.85 46.4738 376.589L46.4738 372.222L48.2316 372.222L48.2316 376.628C48.2316 377.238 48.1561 377.764 48.005 378.206C47.8592 378.602 47.6066 378.959 47.2472 379.277C46.6534 379.792 45.8982 380.05 44.9816 380.05C44.0701 380.05 43.3175 379.792 42.7238 379.277C42.3592 378.959 42.1014 378.602 41.9503 378.206C41.8045 377.852 41.7316 377.326 41.7316 376.628L41.7316 372.222L43.4894 372.222Z" fill="#000000" fill-rule="nonzero" opacity="1" stroke="none"/>
<path d="M51.2081 372.213L51.2081 379.831L49.4503 379.831L49.4503 372.213L51.2081 372.213Z" fill="#000000" fill-rule="nonzero" opacity="1" stroke="none"/>
<path d="M54.2245 375.304L54.1925 379.831L52.4347 379.831L52.4667 375.304L54.2245 375.304ZM52.2474 373.326C52.2474 373.018 52.3593 372.753 52.5833 372.529C52.8072 372.305 53.0755 372.193 53.388 372.193C53.7057 372.193 53.9765 372.305 54.2005 372.529C54.4244 372.748 54.5364 373.016 54.5364 373.333C54.5364 373.651 54.4244 373.922 54.2005 374.146C53.9817 374.37 53.7135 374.482 53.3958 374.482C53.0781 374.482 52.8072 374.37 52.5833 374.146C52.3593 373.922 52.2474 373.649 52.2474 373.326Z" fill="#000000" fill-rule="nonzero" opacity="1" stroke="none"/>
<path d="M55.4191 372.222L57.1847 372.222L57.1847 372.925C57.7993 372.316 58.492 372.011 59.2628 372.011C60.1482 372.011 60.8383 372.29 61.3331 372.847C61.7602 373.321 61.9738 374.094 61.9738 375.167L61.9738 379.831L60.2081 379.831L60.2081 375.581C60.2081 374.831 60.104 374.313 59.8956 374.027C59.6925 373.735 59.3227 373.589 58.7863 373.589C58.2029 373.589 57.7889 373.782 57.5441 374.167C57.3045 374.548 57.1847 375.212 57.1847 376.16L57.1847 379.831L55.4191 379.831L55.4191 372.222Z" fill="#000000" fill-rule="nonzero" opacity="1" stroke="none"/>
<path d="M68.8019 372.222L70.5675 372.222L70.5675 379.831L68.8019 379.831L68.8019 379.035C68.0779 379.712 67.2993 380.05 66.4659 380.05C65.4139 380.05 64.5441 379.67 63.8566 378.91C63.1743 378.134 62.8331 377.165 62.8331 376.003C62.8331 374.863 63.1743 373.912 63.8566 373.152C64.5389 372.391 65.393 372.011 66.4191 372.011C67.3045 372.011 68.0988 372.376 68.8019 373.105L68.8019 372.222ZM64.63 376.003C64.63 376.732 64.8253 377.326 65.2159 377.785C65.617 378.248 66.1222 378.48 66.7316 378.48C67.3826 378.48 67.9087 378.256 68.3097 377.808C68.7107 377.344 68.9113 376.756 68.9113 376.042C68.9113 375.329 68.7107 374.74 68.3097 374.277C67.9087 373.824 67.3878 373.597 66.7472 373.597C66.143 373.597 65.6378 373.826 65.2316 374.285C64.8305 374.748 64.63 375.321 64.63 376.003Z" fill="#000000" fill-rule="nonzero" opacity="1" stroke="none"/>
<path d="M71.7863 372.222L73.5441 372.222L73.5441 372.902C73.867 372.563 74.0819 372.36 74.4034 372.247C74.7764 372.118 75.357 372.188 75.357 372.188L76.2566 373.967C75.9232 373.728 75.369 373.64 75.0513 373.64C74.093 373.64 73.5441 374.438 73.5441 375.886L73.5441 379.831L71.7863 379.831L71.7863 372.222Z" fill="#000000" fill-rule="nonzero" opacity="1" stroke="none"/>
<path d="M79.8722 378.417L76.4503 372.222L78.4894 372.222L80.8175 376.597L82.9894 372.222L84.9738 372.222L78.9113 383.972L76.9034 383.972L79.8722 378.417Z" fill="#000000" fill-rule="nonzero" opacity="1" stroke="none"/>
</g>
</g>
</g>
</svg>
