<?xml version="1.0" encoding="UTF-8" standalone="no"?>
<!DOCTYPE svg PUBLIC "-//W3C//DTD SVG 1.1//EN" "http://www.w3.org/Graphics/SVG/1.1/DTD/svg11.dtd">
<!-- Created with Vectornator (http://vectornator.io/) -->
<svg height="100%" stroke-miterlimit="10" style="fill-rule:nonzero;clip-rule:evenodd;stroke-linecap:round;stroke-linejoin:round;" version="1.1" viewBox="35.8619 216.821 50.9688 70.9729" width="100%" xml:space="preserve" xmlns="http://www.w3.org/2000/svg" xmlns:vectornator="http://vectornator.io" xmlns:xlink="http://www.w3.org/1999/xlink">
<defs>
<linearGradient gradientTransform="matrix(50.9688 0 0 50.9688 35.8619 242.68)" gradientUnits="userSpaceOnUse" id="LinearGradient" x1="0" x2="1" y1="0" y2="0">
<stop offset="0.292226" stop-color="#6fd69f"/>
<stop offset="1" stop-color="#85d4fe"/>
</linearGradient>
</defs>
<clipPath id="ArtboardFrame">
<rect height="70.9729" width="50.9688" x="35.8619" y="216.821"/>
</clipPath>
<g clip-path="url(#ArtboardFrame)" id="Layer" vectornator:layerName="Layer">
<g opacity="1" vectornator:layerName="Colour Culinary Vertival">
<g opacity="1" vectornator:layerName="Group 6">
<path d="M71.8763 228.545C71.8763 226.626 73.4321 225.07 75.3513 225.07C77.2705 225.07 78.8263 226.626 78.8263 228.545C78.8263 230.465 77.2705 232.02 75.3513 232.02C73.4321 232.02 71.8763 230.465 71.8763 228.545Z" fill="#82d4f3" fill-rule="nonzero" opacity="1" stroke="none" vectornator:layerName="Button 6"/>
<path d="M47.3619 216.821C41.0106 216.821 35.8621 221.97 35.8619 228.321C35.8619 229.218 35.8619 256.143 35.8619 257.04C35.8619 263.391 41.0106 268.54 47.3619 268.54L75.3306 268.54C81.6819 268.54 86.8305 263.391 86.8306 257.04L86.8306 228.321C86.8306 221.97 81.6819 216.821 75.3306 216.821L47.3619 216.821ZM47.3619 219.821L54.3619 219.821C56.8066 219.952 57.7243 220.246 58.3619 220.633C59.0712 221.064 59.2369 221.818 59.2369 222.477C59.2369 222.984 59.1154 223.441 58.8619 223.821C58.6086 224.201 58.2554 224.615 57.7994 225.071L43.2681 238.883C42.4575 239.694 41.7452 240.224 41.1119 240.477C40.5199 240.714 39.743 240.834 38.8619 240.852C38.8619 234.874 38.8619 228.712 38.8619 228.321C38.8619 223.626 42.6675 219.821 47.3619 219.821ZM75.7369 219.915C80.2306 220.139 83.8305 223.771 83.8306 228.321L83.8306 257.04C83.8306 260.067 82.1515 262.596 79.7681 264.102C77.7863 265.107 76.1075 265.299 75.0494 264.665C73.7827 263.905 72.5699 262.723 71.4556 261.102L53.6119 235.321L62.7994 226.196C64.3701 224.676 66.2516 223.324 68.4556 222.133C70.5833 220.984 72.8123 219.949 75.7369 219.915ZM38.8619 245.071C40.2273 245.087 41.3116 245.233 41.9869 245.571C42.6962 245.925 43.3359 246.51 43.8931 247.321L53.6744 260.852C54.1304 261.511 54.466 262.078 54.6431 262.508C54.8205 262.939 54.8931 263.298 54.8931 263.602C54.8931 264.283 54.116 265.467 52.4869 265.54L47.3619 265.54C42.6675 265.54 38.8617 261.734 38.8619 257.04C38.8619 256.666 38.8619 250.718 38.8619 245.071Z" fill="url(#LinearGradient)" fill-rule="nonzero" opacity="1" stroke="none" vectornator:layerName="K 9"/>
</g>
<g opacity="1" vectornator:layerName="Group 5">
<path d="M38.0009 271.909L37.9752 278.505L40.4517 276.044L42.8111 276.044L39.5064 279.239L43.0533 283.653L40.7721 283.653L38.2564 280.442L37.9752 280.723L37.9752 283.653L36.2174 283.653L36.2431 271.909L38.0009 271.909Z" fill="#6fd69f" fill-rule="nonzero" opacity="1" stroke="none"/>
<path d="M44.9908 276.044L44.9908 280.411C44.9908 281.671 45.4882 282.302 46.483 282.302C47.4778 282.302 47.9752 281.671 47.9752 280.411L47.9752 276.044L49.733 276.044L49.733 280.45C49.733 281.059 49.6575 281.585 49.5064 282.028C49.3606 282.424 49.108 282.781 48.7486 283.098C48.1549 283.614 47.3997 283.872 46.483 283.872C45.5715 283.872 44.8189 283.614 44.2252 283.098C43.8606 282.781 43.6028 282.424 43.4517 282.028C43.3059 281.674 43.233 281.148 43.233 280.45L43.233 276.044L44.9908 276.044Z" fill="#6fd69f" fill-rule="nonzero" opacity="1" stroke="none"/>
<path d="M52.7096 276.035L52.7096 283.653L50.9517 283.653L50.9517 276.035L52.7096 276.035Z" fill="#6fd69f" fill-rule="nonzero" opacity="1" stroke="none"/>
<path d="M55.7259 279.126L55.6939 283.653L53.9361 283.653L53.9681 279.126L55.7259 279.126ZM53.7488 277.147C53.7488 276.84 53.8608 276.574 54.0847 276.35C54.3087 276.126 54.5769 276.015 54.8894 276.015C55.2071 276.015 55.4779 276.126 55.7019 276.35C55.9259 276.569 56.0378 276.837 56.0378 277.155C56.0378 277.473 55.9259 277.744 55.7019 277.968C55.4831 278.192 55.2149 278.304 54.8972 278.304C54.5795 278.304 54.3087 278.192 54.0847 277.968C53.8608 277.744 53.7488 277.47 53.7488 277.147Z" fill="#6fd69f" fill-rule="nonzero" opacity="1" stroke="none"/>
<path d="M56.9205 276.044L58.6861 276.044L58.6861 276.747C59.3007 276.137 59.9934 275.833 60.7642 275.833C61.6497 275.833 62.3398 276.111 62.8346 276.669C63.2616 277.143 63.4752 277.916 63.4752 278.989L63.4752 283.653L61.7096 283.653L61.7096 279.403C61.7096 278.653 61.6054 278.135 61.3971 277.848C61.1939 277.557 60.8241 277.411 60.2877 277.411C59.7043 277.411 59.2903 277.604 59.0455 277.989C58.8059 278.369 58.6861 279.033 58.6861 279.981L58.6861 283.653L56.9205 283.653L56.9205 276.044Z" fill="#6fd69f" fill-rule="nonzero" opacity="1" stroke="none"/>
<path d="M70.3033 276.044L72.0689 276.044L72.0689 283.653L70.3033 283.653L70.3033 282.856C69.5793 283.533 68.8007 283.872 67.9674 283.872C66.9153 283.872 66.0455 283.492 65.358 282.731C64.6757 281.955 64.3346 280.986 64.3346 279.825C64.3346 278.684 64.6757 277.734 65.358 276.973C66.0403 276.213 66.8944 275.833 67.9205 275.833C68.8059 275.833 69.6002 276.197 70.3033 276.927L70.3033 276.044ZM66.1314 279.825C66.1314 280.554 66.3267 281.148 66.7174 281.606C67.1184 282.07 67.6236 282.302 68.233 282.302C68.884 282.302 69.4101 282.078 69.8111 281.63C70.2122 281.166 70.4127 280.578 70.4127 279.864C70.4127 279.15 70.2122 278.562 69.8111 278.098C69.4101 277.645 68.8892 277.419 68.2486 277.419C67.6444 277.419 67.1392 277.648 66.733 278.106C66.3319 278.57 66.1314 279.143 66.1314 279.825Z" fill="#6fd69f" fill-rule="nonzero" opacity="1" stroke="none"/>
<path d="M73.2877 276.044L75.0455 276.044L75.0455 276.723C75.3684 276.385 75.5833 276.182 75.9049 276.068C76.2778 275.94 76.8584 276.01 76.8584 276.01L77.758 277.789C77.4246 277.549 76.8704 277.462 76.5527 277.462C75.5944 277.462 75.0455 278.26 75.0455 279.708L75.0455 283.653L73.2877 283.653L73.2877 276.044Z" fill="#6fd69f" fill-rule="nonzero" opacity="1" stroke="none"/>
<path d="M81.3736 282.239L77.9517 276.044L79.9908 276.044L82.3189 280.419L84.4908 276.044L86.4752 276.044L80.4127 287.794L78.4049 287.794L81.3736 282.239Z" fill="#6fd69f" fill-rule="nonzero" opacity="1" stroke="none"/>
</g>
</g>
</g>
</svg>
