<?xml version="1.0" encoding="UTF-8" standalone="no"?>
<!DOCTYPE svg PUBLIC "-//W3C//DTD SVG 1.1//EN" "http://www.w3.org/Graphics/SVG/1.1/DTD/svg11.dtd">
<!-- Created with Vectornator (http://vectornator.io/) -->
<svg height="100%" stroke-miterlimit="10" style="fill-rule:nonzero;clip-rule:evenodd;stroke-linecap:round;stroke-linejoin:round;" version="1.1" viewBox="134.305 312.999 159.366 51.7188" width="100%" xml:space="preserve" xmlns="http://www.w3.org/2000/svg" xmlns:vectornator="http://vectornator.io" xmlns:xlink="http://www.w3.org/1999/xlink">
<defs/>
<clipPath id="ArtboardFrame">
<rect height="51.7188" width="159.366" x="134.305" y="312.999"/>
</clipPath>
<g clip-path="url(#ArtboardFrame)" id="Layer" vectornator:layerName="Layer">
<g opacity="1" vectornator:layerName="Group 11">
<g opacity="1" vectornator:layerName="Group 8">
<path d="M170.32 324.724C170.32 322.805 171.876 321.249 173.795 321.249C175.714 321.249 177.27 322.805 177.27 324.724C177.27 326.643 175.714 328.199 173.795 328.199C171.876 328.199 170.32 326.643 170.32 324.724Z" fill="#000000" fill-rule="nonzero" opacity="1" stroke="none" vectornator:layerName="Button 6"/>
<path d="M145.805 312.999C139.454 312.999 134.306 318.148 134.305 324.499C134.305 325.396 134.305 352.321 134.305 353.218C134.305 359.569 139.454 364.718 145.805 364.718L173.774 364.718C180.126 364.718 185.274 359.569 185.274 353.218L185.274 324.499C185.274 318.148 180.126 312.999 173.774 312.999L145.805 312.999ZM145.805 315.999L152.805 315.999C155.25 316.13 156.168 316.424 156.805 316.812C157.515 317.242 157.68 317.997 157.68 318.655C157.68 319.162 157.559 319.619 157.305 319.999C157.052 320.379 156.699 320.793 156.243 321.249L141.712 335.062C140.901 335.872 140.189 336.402 139.555 336.655C138.963 336.892 138.187 337.012 137.305 337.03C137.305 331.053 137.305 324.891 137.305 324.499C137.305 319.805 141.111 315.999 145.805 315.999ZM174.18 316.093C178.674 316.318 182.274 319.949 182.274 324.499L182.274 353.218C182.274 356.246 180.595 358.775 178.212 360.28C176.23 361.285 174.551 361.478 173.493 360.843C172.226 360.083 171.014 358.902 169.899 357.28L152.055 331.499L161.243 322.374C162.814 320.854 164.695 319.502 166.899 318.312C169.027 317.162 171.256 316.128 174.18 316.093ZM137.305 341.249C138.671 341.265 139.755 341.411 140.43 341.749C141.14 342.104 141.78 342.688 142.337 343.499L152.118 357.03C152.574 357.689 152.91 358.256 153.087 358.687C153.264 359.117 153.337 359.476 153.337 359.78C153.337 360.461 152.56 361.646 150.93 361.718L145.805 361.718C141.111 361.718 137.305 357.912 137.305 353.218C137.305 352.844 137.305 346.896 137.305 341.249Z" fill="#000000" fill-rule="nonzero" opacity="1" stroke="none" vectornator:layerName="K 9"/>
</g>
<g opacity="1" vectornator:layerName="Group 9">
<path d="M204.087 324.18L204.04 336.37L208.617 331.822L212.977 331.822L206.87 337.727L213.424 345.885L209.209 345.885L204.559 339.951L204.04 340.47L204.04 345.885L200.791 345.885L200.839 324.18L204.087 324.18Z" fill="#000000" fill-rule="nonzero" opacity="1" stroke="none"/>
<path d="M217.005 331.822L217.005 339.893C217.005 342.222 217.924 343.387 219.763 343.387C221.601 343.387 222.52 342.222 222.52 339.893L222.52 331.822L225.769 331.822L225.769 339.965C225.769 341.091 225.629 342.063 225.35 342.882C225.081 343.613 224.614 344.272 223.95 344.86C222.853 345.813 221.457 346.289 219.763 346.289C218.078 346.289 216.687 345.813 215.59 344.86C214.916 344.272 214.44 343.613 214.161 342.882C213.891 342.227 213.757 341.255 213.757 339.965L213.757 331.822L217.005 331.822Z" fill="#000000" fill-rule="nonzero" opacity="1" stroke="none"/>
<path d="M231.27 331.805L231.27 345.885L228.021 345.885L228.021 331.805L231.27 331.805Z" fill="#000000" fill-rule="nonzero" opacity="1" stroke="none"/>
<path d="M236.844 337.518L236.785 345.885L233.537 345.885L233.596 337.518L236.844 337.518ZM233.191 333.862C233.191 333.294 233.397 332.803 233.811 332.389C234.225 331.975 234.721 331.768 235.298 331.768C235.886 331.768 236.386 331.975 236.8 332.389C237.214 332.793 237.421 333.289 237.421 333.876C237.421 334.463 237.214 334.964 236.8 335.378C236.396 335.791 235.9 335.998 235.313 335.998C234.726 335.998 234.225 335.791 233.811 335.378C233.397 334.964 233.191 334.458 233.191 333.862Z" fill="#000000" fill-rule="nonzero" opacity="1" stroke="none"/>
<path d="M239.052 331.822L242.315 331.822L242.315 333.121C243.451 331.995 244.731 331.432 246.156 331.432C247.792 331.432 249.067 331.947 249.982 332.977C250.771 333.853 251.166 335.282 251.166 337.265L251.166 345.885L247.903 345.885L247.903 338.03C247.903 336.644 247.71 335.687 247.325 335.157C246.95 334.618 246.266 334.349 245.275 334.349C244.197 334.349 243.432 334.705 242.979 335.417C242.536 336.12 242.315 337.347 242.315 339.099L242.315 345.885L239.052 345.885L239.052 331.822Z" fill="#000000" fill-rule="nonzero" opacity="1" stroke="none"/>
<path d="M263.785 331.822L267.048 331.822L267.048 345.885L263.785 345.885L263.785 344.412C262.447 345.663 261.008 346.289 259.468 346.289C257.523 346.289 255.916 345.586 254.645 344.181C253.384 342.747 252.754 340.956 252.754 338.81C252.754 336.702 253.384 334.945 254.645 333.54C255.906 332.135 257.485 331.432 259.381 331.432C261.017 331.432 262.485 332.106 263.785 333.453L263.785 331.822ZM256.075 338.81C256.075 340.158 256.436 341.255 257.157 342.102C257.899 342.959 258.832 343.387 259.958 343.387C261.162 343.387 262.134 342.973 262.875 342.145C263.616 341.289 263.987 340.201 263.987 338.882C263.987 337.564 263.616 336.476 262.875 335.619C262.134 334.782 261.171 334.363 259.987 334.363C258.871 334.363 257.937 334.787 257.186 335.634C256.445 336.49 256.075 337.549 256.075 338.81Z" fill="#000000" fill-rule="nonzero" opacity="1" stroke="none"/>
<path d="M269.3 331.822L272.549 331.822L272.549 333.078C273.145 332.452 273.542 332.078 274.137 331.868C274.826 331.63 275.899 331.759 275.899 331.759L277.561 335.047C276.945 334.604 275.921 334.443 275.334 334.443C273.563 334.443 272.549 335.918 272.549 338.593L272.549 345.885L269.3 345.885L269.3 331.822Z" fill="#000000" fill-rule="nonzero" opacity="1" stroke="none"/>
<path d="M284.243 343.271L277.919 331.822L281.688 331.822L285.99 339.907L290.004 331.822L293.671 331.822L282.468 353.537L278.757 353.537L284.243 343.271Z" fill="#000000" fill-rule="nonzero" opacity="1" stroke="none"/>
</g>
</g>
</g>
</svg>
