<?xml version="1.0" encoding="UTF-8" standalone="no"?>
<!DOCTYPE svg PUBLIC "-//W3C//DTD SVG 1.1//EN" "http://www.w3.org/Graphics/SVG/1.1/DTD/svg11.dtd">
<!-- Created with Vectornator (http://vectornator.io/) -->
<svg height="100%" stroke-miterlimit="10" style="fill-rule:nonzero;clip-rule:evenodd;stroke-linecap:round;stroke-linejoin:round;" version="1.1" viewBox="200.791 324.18 92.8804 29.3568" width="100%" xml:space="preserve" xmlns="http://www.w3.org/2000/svg" xmlns:vectornator="http://vectornator.io" xmlns:xlink="http://www.w3.org/1999/xlink">
<defs/>
<clipPath id="ArtboardFrame">
<rect height="29.3568" width="92.8804" x="200.791" y="324.18"/>
</clipPath>
<g clip-path="url(#ArtboardFrame)" id="Layer" vectornator:layerName="Layer">
<g opacity="1" vectornator:layerName="Group 9">
<path d="M204.087 324.18L204.04 336.37L208.617 331.822L212.977 331.822L206.87 337.727L213.424 345.885L209.209 345.885L204.559 339.951L204.04 340.47L204.04 345.885L200.791 345.885L200.839 324.18L204.087 324.18Z" fill="#000000" fill-rule="nonzero" opacity="1" stroke="none"/>
<path d="M217.005 331.822L217.005 339.893C217.005 342.222 217.924 343.387 219.763 343.387C221.601 343.387 222.52 342.222 222.52 339.893L222.52 331.822L225.769 331.822L225.769 339.965C225.769 341.091 225.629 342.063 225.35 342.882C225.081 343.613 224.614 344.272 223.95 344.86C222.853 345.813 221.457 346.289 219.763 346.289C218.078 346.289 216.687 345.813 215.59 344.86C214.916 344.272 214.44 343.613 214.161 342.882C213.891 342.227 213.757 341.255 213.757 339.965L213.757 331.822L217.005 331.822Z" fill="#000000" fill-rule="nonzero" opacity="1" stroke="none"/>
<path d="M231.27 331.805L231.27 345.885L228.021 345.885L228.021 331.805L231.27 331.805Z" fill="#000000" fill-rule="nonzero" opacity="1" stroke="none"/>
<path d="M236.844 337.518L236.785 345.885L233.537 345.885L233.596 337.518L236.844 337.518ZM233.191 333.862C233.191 333.294 233.397 332.803 233.811 332.389C234.225 331.975 234.721 331.768 235.298 331.768C235.886 331.768 236.386 331.975 236.8 332.389C237.214 332.793 237.421 333.289 237.421 333.876C237.421 334.463 237.214 334.964 236.8 335.378C236.396 335.791 235.9 335.998 235.313 335.998C234.726 335.998 234.225 335.791 233.811 335.378C233.397 334.964 233.191 334.458 233.191 333.862Z" fill="#000000" fill-rule="nonzero" opacity="1" stroke="none"/>
<path d="M239.052 331.822L242.315 331.822L242.315 333.121C243.451 331.995 244.731 331.432 246.156 331.432C247.792 331.432 249.067 331.947 249.982 332.977C250.771 333.853 251.166 335.282 251.166 337.265L251.166 345.885L247.903 345.885L247.903 338.03C247.903 336.644 247.71 335.687 247.325 335.157C246.95 334.618 246.266 334.349 245.275 334.349C244.197 334.349 243.432 334.705 242.979 335.417C242.536 336.12 242.315 337.347 242.315 339.099L242.315 345.885L239.052 345.885L239.052 331.822Z" fill="#000000" fill-rule="nonzero" opacity="1" stroke="none"/>
<path d="M263.785 331.822L267.048 331.822L267.048 345.885L263.785 345.885L263.785 344.412C262.447 345.663 261.008 346.289 259.468 346.289C257.523 346.289 255.916 345.586 254.645 344.181C253.384 342.747 252.754 340.956 252.754 338.81C252.754 336.702 253.384 334.945 254.645 333.54C255.906 332.135 257.485 331.432 259.381 331.432C261.017 331.432 262.485 332.106 263.785 333.453L263.785 331.822ZM256.075 338.81C256.075 340.158 256.436 341.255 257.157 342.102C257.899 342.959 258.832 343.387 259.958 343.387C261.162 343.387 262.134 342.973 262.875 342.145C263.616 341.289 263.987 340.201 263.987 338.882C263.987 337.564 263.616 336.476 262.875 335.619C262.134 334.782 261.171 334.363 259.987 334.363C258.871 334.363 257.937 334.787 257.186 335.634C256.445 336.49 256.075 337.549 256.075 338.81Z" fill="#000000" fill-rule="nonzero" opacity="1" stroke="none"/>
<path d="M269.3 331.822L272.549 331.822L272.549 333.078C273.145 332.452 273.542 332.078 274.137 331.868C274.826 331.63 275.899 331.759 275.899 331.759L277.561 335.047C276.945 334.604 275.921 334.443 275.334 334.443C273.563 334.443 272.549 335.918 272.549 338.593L272.549 345.885L269.3 345.885L269.3 331.822Z" fill="#000000" fill-rule="nonzero" opacity="1" stroke="none"/>
<path d="M284.243 343.271L277.919 331.822L281.688 331.822L285.99 339.907L290.004 331.822L293.671 331.822L282.468 353.537L278.757 353.537L284.243 343.271Z" fill="#000000" fill-rule="nonzero" opacity="1" stroke="none"/>
</g>
</g>
</svg>
