<svg width="769" height="769" viewBox="0 0 769 769" fill="none" xmlns="http://www.w3.org/2000/svg">
<mask id="mask0_242_196" style="mask-type:luminance" maskUnits="userSpaceOnUse" x="0" y="0" width="769" height="769">
<path d="M769 0H0V769H769V0Z" fill="white"/>
</mask>
<g mask="url(#mask0_242_196)">
<path d="M0 153.8C0 68.8583 68.8583 0 153.8 0H615.2C700.142 0 769 68.8583 769 153.8V615.2C769 700.141 700.142 769 615.2 769H153.8C68.8583 769 0 700.141 0 615.2V153.8Z" fill="black"/>
</g>
<path d="M200.766 117.5H558.234C612.505 117.5 656.5 161.495 656.5 215.766V671.5H200.766C146.495 671.5 102.5 627.505 102.5 573.234V215.766C102.5 161.495 146.495 117.5 200.766 117.5Z" stroke="white" stroke-width="45"/>
<rect x="565" y="625" width="123" height="90" fill="black"/>
<rect x="355.048" y="616.143" width="209.905" height="98.9206" fill="url(#paint0_linear_242_196)"/>
<path d="M192.825 310.12C192.825 308.463 194.168 307.12 195.825 307.12H234.971C236.628 307.12 237.971 308.463 237.971 310.12V349.32C237.971 350.976 236.628 352.32 234.971 352.32H195.825C194.168 352.32 192.825 350.976 192.825 349.32V310.12Z" fill="#1FB100"/>
<path d="M301.986 309.994C301.986 308.337 303.329 306.994 304.986 306.994H344.132C345.789 306.994 347.132 308.337 347.132 309.994V349.194C347.132 350.851 345.789 352.194 344.132 352.194H304.986C303.329 352.194 301.986 350.851 301.986 349.194V309.994Z" fill="#1FB100"/>
<path d="M409.937 309.744C409.937 308.088 411.28 306.744 412.937 306.744H452.087C453.744 306.744 455.087 308.088 455.087 309.744V348.94C455.087 350.597 453.744 351.94 452.087 351.94H412.937C411.28 351.94 409.937 350.597 409.937 348.94V309.744Z" fill="#1FB100"/>
<path d="M519.109 309.87C519.109 308.214 520.452 306.87 522.109 306.87H561.255C562.912 306.87 564.255 308.214 564.255 309.87V349.066C564.255 350.723 562.912 352.066 561.255 352.066H522.109C520.452 352.066 519.109 350.723 519.109 349.066V309.87Z" fill="#1FB100"/>
<path d="M634 652C634 650.343 635.343 649 637 649H676.146C677.803 649 679.146 650.343 679.146 652V691.196C679.146 692.853 677.803 694.196 676.146 694.196H637C635.343 694.196 634 692.853 634 691.196V652Z" fill="#1FB100"/>
<path d="M634 589C634 587.343 635.343 586 637 586H676.146C677.803 586 679.146 587.343 679.146 589V628.196C679.146 629.853 677.803 631.196 676.146 631.196H637C635.343 631.196 634 629.853 634 628.196V589Z" fill="white"/>
<path d="M247.34 309.115C247.34 307.458 248.683 306.115 250.34 306.115H289.49C291.147 306.115 292.49 307.458 292.49 309.115V348.311C292.49 349.968 291.147 351.311 289.49 351.311H250.34C248.683 351.311 247.34 349.968 247.34 348.311V309.115Z" fill="#1FB100"/>
<path d="M355.296 309.242C355.296 307.585 356.639 306.242 358.296 306.242H397.442C399.099 306.242 400.442 307.585 400.442 309.242V348.438C400.442 350.095 399.099 351.438 397.442 351.438H358.296C356.639 351.438 355.296 350.095 355.296 348.438V309.242Z" fill="#1FB100"/>
<path d="M464.464 309.365C464.464 307.708 465.807 306.365 467.464 306.365H506.61C508.267 306.365 509.61 307.708 509.61 309.365V348.564C509.61 350.221 508.267 351.564 506.61 351.564H467.464C465.807 351.564 464.464 350.221 464.464 348.564V309.365Z" fill="#1FB100"/>
<path d="M355.296 526.524C355.296 524.868 356.639 523.524 358.296 523.524H397.442C399.099 523.524 400.442 524.868 400.442 526.524V565.724C400.442 567.381 399.099 568.724 397.442 568.724H358.296C356.639 568.724 355.296 567.381 355.296 565.724V526.524Z" fill="#1FB100"/>
<path d="M192.825 364.411C192.825 362.754 194.168 361.411 195.825 361.411H234.971C236.628 361.411 237.971 362.754 237.971 364.411V403.61C237.971 405.267 236.628 406.61 234.971 406.61H195.825C194.168 406.61 192.825 405.267 192.825 403.61V364.411Z" fill="#1FB100"/>
<path d="M301.986 364.283C301.986 362.626 303.329 361.283 304.986 361.283H344.132C345.789 361.283 347.132 362.626 347.132 364.283V403.483C347.132 405.14 345.789 406.483 344.132 406.483H304.986C303.329 406.483 301.986 405.14 301.986 403.483V364.283Z" fill="#1FB100"/>
<path d="M409.937 364.034C409.937 362.377 411.28 361.034 412.937 361.034H452.087C453.744 361.034 455.087 362.377 455.087 364.034V403.23C455.087 404.887 453.744 406.23 452.087 406.23H412.937C411.28 406.23 409.937 404.887 409.937 403.23V364.034Z" fill="#1FB100"/>
<path d="M519.109 364.161C519.109 362.505 520.452 361.161 522.109 361.161H561.255C562.912 361.161 564.255 362.505 564.255 364.161V403.357C564.255 405.014 562.912 406.357 561.255 406.357H522.109C520.452 406.357 519.109 405.014 519.109 403.357V364.161Z" fill="#1FB100"/>
<path d="M247.34 363.406C247.34 361.749 248.683 360.406 250.34 360.406H289.49C291.147 360.406 292.49 361.749 292.49 363.406V402.602C292.49 404.259 291.147 405.602 289.49 405.602H250.34C248.683 405.602 247.34 404.259 247.34 402.602V363.406Z" fill="#1FB100"/>
<path d="M355.296 363.531C355.296 361.874 356.639 360.531 358.296 360.531H397.442C399.099 360.531 400.442 361.874 400.442 363.531V402.727C400.442 404.384 399.099 405.727 397.442 405.727H358.296C356.639 405.727 355.296 404.384 355.296 402.727V363.531Z" fill="#1FB100"/>
<path d="M464.464 363.781C464.464 362.124 465.807 360.781 467.464 360.781H506.61C508.267 360.781 509.61 362.124 509.61 363.781V402.98C509.61 404.637 508.267 405.98 506.61 405.98H467.464C465.807 405.98 464.464 404.637 464.464 402.98V363.781Z" fill="#1FB100"/>
<path d="M301.986 255.704C301.986 254.047 303.329 252.704 304.986 252.704H344.132C345.789 252.704 347.132 254.047 347.132 255.704V294.903C347.132 296.56 345.789 297.903 344.132 297.903H304.986C303.329 297.903 301.986 296.56 301.986 294.903V255.704Z" fill="#1FB100"/>
<path d="M409.937 255.581C409.937 253.924 411.28 252.581 412.937 252.581H452.087C453.744 252.581 455.087 253.924 455.087 255.581V294.777C455.087 296.434 453.744 297.777 452.087 297.777H412.937C411.28 297.777 409.937 296.434 409.937 294.777V255.581Z" fill="#1FB100"/>
<path d="M247.34 254.825C247.34 253.169 248.683 251.825 250.34 251.825H289.49C291.147 251.825 292.49 253.169 292.49 254.825V294.021C292.49 295.678 291.147 297.021 289.49 297.021H250.34C248.683 297.021 247.34 295.678 247.34 294.021V254.825Z" fill="#1FB100"/>
<path d="M464.464 255.201C464.464 253.544 465.807 252.201 467.464 252.201H506.61C508.267 252.201 509.61 253.544 509.61 255.201V294.401C509.61 296.058 508.267 297.401 506.61 297.401H467.464C465.807 297.401 464.464 296.058 464.464 294.401V255.201Z" fill="#1FB100"/>
<path d="M301.986 472.614C301.986 470.957 303.329 469.614 304.986 469.614H344.132C345.789 469.614 347.132 470.957 347.132 472.614V511.81C347.132 513.467 345.789 514.81 344.132 514.81H304.986C303.329 514.81 301.986 513.467 301.986 511.81V472.614Z" fill="#1FB100"/>
<path d="M409.937 472.864C409.937 471.207 411.28 469.864 412.937 469.864H452.087C453.744 469.864 455.087 471.207 455.087 472.864V512.063C455.087 513.72 453.744 515.063 452.087 515.063H412.937C411.28 515.063 409.937 513.72 409.937 512.063V472.864Z" fill="#1FB100"/>
<path d="M355.296 471.985C355.296 470.328 356.639 468.985 358.296 468.985H397.442C399.099 468.985 400.442 470.328 400.442 471.985V511.181C400.442 512.838 399.099 514.181 397.442 514.181H358.296C356.639 514.181 355.296 512.838 355.296 511.181V471.985Z" fill="#1FB100"/>
<path d="M301.986 418.325C301.986 416.668 303.329 415.325 304.986 415.325H344.132C345.789 415.325 347.132 416.668 347.132 418.325V457.521C347.132 459.177 345.789 460.521 344.132 460.521H304.986C303.329 460.521 301.986 459.177 301.986 457.521V418.325Z" fill="#1FB100"/>
<path d="M409.937 418.574C409.937 416.917 411.28 415.574 412.937 415.574H452.087C453.744 415.574 455.087 416.917 455.087 418.574V457.774C455.087 459.431 453.744 460.774 452.087 460.774H412.937C411.28 460.774 409.937 459.431 409.937 457.774V418.574Z" fill="#1FB100"/>
<path d="M247.34 417.945C247.34 416.288 248.683 414.945 250.34 414.945H289.49C291.147 414.945 292.49 416.288 292.49 417.945V457.145C292.49 458.802 291.147 460.145 289.49 460.145H250.34C248.683 460.145 247.34 458.802 247.34 457.145V417.945Z" fill="#1FB100"/>
<path d="M355.296 417.822C355.296 416.165 356.639 414.822 358.296 414.822H397.442C399.099 414.822 400.442 416.165 400.442 417.822V457.018C400.442 458.675 399.099 460.018 397.442 460.018H358.296C356.639 460.018 355.296 458.675 355.296 457.018V417.822Z" fill="#1FB100"/>
<path d="M464.464 417.696C464.464 416.039 465.807 414.696 467.464 414.696H506.61C508.267 414.696 509.61 416.039 509.61 417.696V456.892C509.61 458.549 508.267 459.892 506.61 459.892H467.464C465.807 459.892 464.464 458.549 464.464 456.892V417.696Z" fill="#1FB100"/>
<defs>
<linearGradient id="paint0_linear_242_196" x1="355.048" y1="665.603" x2="564.952" y2="665.603" gradientUnits="userSpaceOnUse">
<stop stop-opacity="0"/>
<stop offset="1"/>
</linearGradient>
</defs>
</svg>
