<svg version="1.2" xmlns="http://www.w3.org/2000/svg" viewBox="0 0 445 56" width="445" height="56">
	<title>svgviewer-output(7)</title>
	<style>
		.s0 { fill: #040422 } 
		.s1 { fill: #1111bb } 
	</style>
	<g>
		<path fill-rule="evenodd" class="s0" d="m444.5 47.4h-8.3v-4.3q-1.5 2.4-4 3.9-2.4 1.4-6.2 1.4-3.4 0-6.4-1.2c-1.9-0.8-3.6-2-5.1-3.5-1.4-1.6-2.6-3.5-3.4-5.6q-1.2-3.3-1.2-7.5 0-4.2 1.4-7.5c0.8-2 2-3.9 3.6-5.5 1.4-1.6 3.1-2.7 5-3.5 1.9-0.8 3.8-1.2 5.8-1.2q3.9 0 6.4 1.2 2.5 1.3 4.1 3.5v-3.8h8.3zm-16.9-7q2 0 3.6-0.7 1.7-0.7 2.9-2.1 1.3-1.3 1.9-3.1 0.7-1.7 0.7-3.9 0-2.1-0.7-3.9c-0.4-1.1-1-2.2-1.9-3.1-0.8-0.9-1.8-1.6-2.9-2q-1.6-0.7-3.6-0.7-2 0-3.7 0.7c-1.1 0.4-2.1 1.1-2.9 2-0.8 0.9-1.5 2-1.9 3.1q-0.7 1.8-0.7 3.9 0 2.2 0.7 3.9 0.7 1.8 1.9 3.1 1.2 1.4 2.9 2.1 1.7 0.7 3.7 0.7zm-20.8-19.1q-1.3-0.4-2.7-0.4-1.9 0-3.4 0.7-1.5 0.8-2.5 2.1-1.1 1.4-1.6 3.2-0.5 1.8-0.5 3.9v16.6h-8.4v-33.6h8.4v5.4q1.4-2.9 3.7-4.6 2.3-1.7 5.4-1.7 1.6 0 2.9 0.4zm-27.5 26.1h-8.4v-20.8q0-3-1.2-4.7-1.2-1.6-4-1.6-2.8 0-4.6 2.1-1.8 2.1-1.8 6.3v18.7h-8.4v-20.7q0-3.1-1.2-4.8-1.3-1.6-4.1-1.6-2.5 0-4.4 2.1-1.9 2.1-1.9 6.1v18.9h-8.4v-33.6h8.4v4.4q1.9-2.9 4.5-4.1c1.6-0.9 3.3-1.3 5.1-1.3q3.7 0 5.9 1.5 2.3 1.6 3.3 4.3 1.8-3 4.7-4.4c1.8-0.9 3.8-1.4 5.8-1.4q5.2 0 8 3 2.7 3 2.7 8zm-80.5-14.7q0.4 3.8 2.9 6.1 2.5 2.3 6.2 2.3 3.5 0 5.6-1.7 2.1-1.6 3.5-4.5l6.3 3.7q-2.3 4.9-6.1 7.4-3.8 2.4-9.4 2.4c-2.3 0-4.5-0.4-6.6-1.3-2-0.8-3.8-2.1-5.4-3.6-1.5-1.6-2.8-3.5-3.7-5.6q-1.3-3.3-1.3-7.3 0-4 1.3-7.2 1.4-3.3 3.8-5.6c1.6-1.6 3.4-2.8 5.5-3.6 2.2-0.9 4.5-1.3 6.8-1.3 2.2 0 4.4 0.4 6.5 1.2 1.9 0.8 3.6 2 5.1 3.5q2.1 2.3 3.3 5.4 1.2 3 1.2 6.7v3zm9-13.3q-3.4 0-5.7 2-2.4 2.1-3.3 5h17.7q-0.6-3.2-2.8-5.1-2.3-1.9-5.9-1.9zm-41.8-5.6h5.1v-9h8.4v9h7.2v7h-7.2v15.3q0 2.5 1.2 3.6 1.1 1.1 3 1.1 1 0 1.6-0.1 0.7-0.2 1.2-0.3l0.8 7q-1.1 0.5-2.6 0.7-1.5 0.3-3 0.3-2.1 0-4-0.5-2-0.5-3.4-1.7c-1.1-0.9-1.8-2.1-2.3-3.3q-0.9-2.1-0.9-5.2v-16.9h-5.1zm-22.2 8.2q0 3.1 7.8 4.8 5.8 1.2 8.4 3.6 2.6 2.5 2.6 6.7 0 2.4-0.9 4.4-0.9 2.1-2.5 3.6-1.7 1.5-4.1 2.4c-1.8 0.6-3.7 0.8-5.5 0.8q-3.2 0-5.6-0.8-2.3-0.8-4.3-2.3-1.8-1.3-3.1-3.2-1.3-1.8-2.2-3.8l6.8-4.3q1 3.2 3.2 5.2 2.1 2 5.3 2c1.2 0 2.5-0.3 3.6-0.9q1.6-1 1.6-2.8 0-1.7-1.7-2.6-1.7-1-5.4-1.7-2.3-0.5-4.5-1.4-2-0.7-3.7-2.1c-1-0.8-1.8-1.8-2.4-3q-0.9-1.7-0.9-4 0-2.4 1-4.2 1.1-1.9 2.8-3.1 1.7-1.2 3.9-1.9 2.3-0.6 4.6-0.6 5.4 0 8.6 2.1 3.1 2.1 5.1 6.4l-6.1 3.6q-1-2.7-3-4.3c-1.2-1-2.8-1.6-4.4-1.6q-2.1 0-3.6 0.7-1.4 0.8-1.4 2.3z"/>
		<path fill-rule="evenodd" class="s0" d="m169.7 47.4h-8.4v-4.3q-1.4 2.4-3.9 3.9-2.5 1.4-6.3 1.4-3.4 0-6.3-1.2c-1.9-0.8-3.7-2-5.1-3.5-1.5-1.6-2.6-3.5-3.4-5.6q-1.2-3.3-1.2-7.5 0-4.2 1.3-7.5c0.9-2 2.1-3.9 3.6-5.5 1.5-1.6 3.2-2.7 5.1-3.5 1.8-0.8 3.8-1.2 5.8-1.2q3.9 0 6.4 1.2 2.5 1.3 4 3.5v-3.8h8.4zm-17-7q2 0 3.7-0.7 1.7-0.7 2.9-2.1 1.2-1.3 1.9-3.1 0.7-1.7 0.7-3.9 0-2.1-0.7-3.9c-0.4-1.1-1.1-2.2-1.9-3.1-0.8-0.9-1.8-1.6-2.9-2q-1.7-0.7-3.7-0.7-2 0-3.6 0.7c-1.1 0.4-2.1 1.1-2.9 2-0.9 0.9-1.5 2-1.9 3.1q-0.7 1.8-0.7 3.9 0 2.2 0.7 3.9 0.6 1.8 1.9 3.1 1.2 1.4 2.9 2.1 1.6 0.7 3.6 0.7zm-23.7 7h-8.4v-20.8q0-3-1.2-4.6-1.2-1.7-4-1.7-2.8 0-4.6 2.1-1.8 2.1-1.8 6.3v18.7h-8.4v-20.6q0-3.1-1.2-4.8-1.3-1.7-4.1-1.7-2.4 0-4.3 2.1-1.9 2.1-1.9 6.2v18.8h-8.4v-33.6h8.4v4.5q1.8-2.9 4.4-4.2c1.6-0.8 3.4-1.2 5.1-1.2q3.7 0 5.9 1.5 2.3 1.5 3.3 4.2 1.8-3 4.7-4.3c1.8-1 3.8-1.4 5.9-1.4q5.2 0 7.9 3 2.7 3 2.7 8zm-87.6-33.6h8.4v18.9q0 3.7 1.6 5.7 1.6 2 5.2 2 3.5 0 5.5-2.6 2.1-2.6 2.1-6.7v-17.3h8.4v33.6h-8.4v-5.3q-1.6 3.1-4.3 4.7-2.7 1.6-6.2 1.6-2.6 0-4.8-0.9c-1.5-0.6-2.8-1.5-3.9-2.6-1.2-1.3-2.1-2.7-2.6-4.3q-1-2.5-1-5.9zm-41.4-13.9h8.4v18c1.3-1.6 2.9-2.9 4.7-3.7 1.9-0.9 4-1.4 6.1-1.4q3.4 0 6.2 1.2c1.9 0.8 3.6 2 5 3.5 1.5 1.6 2.7 3.5 3.4 5.6q1.2 3.3 1.2 7.5 0 4.2-1.2 7.5c-0.8 2-2 3.9-3.5 5.6-1.4 1.5-3.1 2.7-5 3.4-2 0.8-4.1 1.2-6.2 1.2q-3.9 0-6.5-1.5-2.7-1.5-4.2-3.6v4.2h-8.4zm17.2 40.4q2 0 3.7-0.7c1.1-0.5 2.1-1.2 3-2.1q1.2-1.3 1.9-3.1 0.7-1.7 0.7-3.9 0-2.1-0.7-3.9c-0.4-1.1-1.1-2.2-1.9-3.1-0.9-0.9-1.9-1.6-3-2q-1.7-0.7-3.7-0.7-2 0-3.7 0.7c-1.2 0.4-2.2 1.1-3 2-0.8 0.9-1.5 2-1.9 3.1q-0.7 1.8-0.7 3.9 0 2.2 0.7 3.9 0.7 1.8 1.9 3.1 1.2 1.3 3 2.1 1.7 0.7 3.7 0.7z"/>
		<g>
			<path fill-rule="evenodd" class="s1" d="m183.9 34.5c-1.9 0-3.4-1.6-3.4-3.5 0-1.9 1.5-3.4 3.4-3.4 1.9 0 3.5 1.5 3.5 3.4 0 1.9-1.6 3.5-3.5 3.5z"/>
			<path fill-rule="evenodd" class="s1" d="m196.1 23.6c-1.9 0-3.5 1.5-3.5 3.4v8c0 1.9 1.6 3.4 3.5 3.4 1.9 0 3.4-1.5 3.4-3.4v-8c0-1.9-1.5-3.4-3.4-3.4z"/>
			<path fill-rule="evenodd" class="s1" d="m204.8 9.7v42.9c0 1.9 1.5 3.4 3.4 3.4 2 0 3.5-1.5 3.5-3.4v-42.9c0-2-1.5-3.5-3.5-3.5-1.9 0-3.4 1.5-3.4 3.5z"/>
			<path fill-rule="evenodd" class="s1" d="m216.5 16.5v29.2c0 1.9 1.6 3.4 3.5 3.4 1.9 0 3.4-1.5 3.4-3.4v-29.2c0-1.9-1.5-3.4-3.4-3.4-1.9 0-3.5 1.5-3.5 3.4z"/>
		</g>
		<g>
			<path class="s0" d="m516 29.2l-5.7 18.2h-3.1l-4.4-14.5-4.4 14.5h-3.2l-5.7-18.2h3.1l4.2 15.2 4.5-15.2h3.1l4.5 15.3 4.1-15.3z"/>
			<path class="s0" d="m528.1 28.8q2 0 3.7 0.9 1.7 0.9 2.6 2.7 1 1.7 1 4.2v10.8h-3v-10.3q0-2.8-1.4-4.2-1.4-1.4-3.7-1.4-2.4 0-3.9 1.5-1.4 1.4-1.4 4.3v10.1h-3v-24.6h3v9q0.9-1.4 2.5-2.2 1.6-0.8 3.6-0.8z"/>
			<path class="s0" d="m557 37.6q0 0.8-0.1 1.8h-14.6q0.2 2.7 1.8 4.2 1.7 1.5 4.1 1.5 2 0 3.3-0.9 1.3-0.9 1.9-2.5h3.2q-0.7 2.7-2.9 4.3-2.2 1.7-5.5 1.7-2.6 0-4.6-1.2-2.1-1.2-3.2-3.3-1.2-2.2-1.2-5 0-2.8 1.1-4.9 1.2-2.1 3.2-3.3 2.1-1.1 4.7-1.1 2.6 0 4.6 1.1 2 1.1 3.1 3.1 1.1 2 1.1 4.5zm-3.1-0.7q0-1.7-0.8-2.9-0.8-1.3-2.1-1.9-1.3-0.7-2.9-0.7-2.3 0-3.9 1.5-1.6 1.4-1.9 4z"/>
			<path class="s0" d="m564 32.1q0.8-1.5 2.3-2.4 1.5-0.9 3.6-0.9v3.2h-0.8q-5.1 0-5.1 5.5v9.9h-3v-18.2h3z"/>
			<path class="s0" d="m590.1 37.6q0 0.8-0.1 1.8h-14.6q0.2 2.7 1.8 4.2 1.7 1.5 4.1 1.5 2 0 3.3-0.9 1.3-0.9 1.9-2.5h3.2q-0.7 2.7-2.9 4.3-2.2 1.7-5.5 1.7-2.6 0-4.6-1.2-2.1-1.2-3.2-3.3-1.2-2.2-1.2-5 0-2.8 1.1-4.9 1.2-2.1 3.2-3.3 2.1-1.1 4.7-1.1 2.6 0 4.6 1.1 2 1.1 3.1 3.1 1.1 2 1.1 4.5zm-3.1-0.7q0-1.7-0.8-2.9-0.8-1.3-2.1-1.9-1.3-0.7-2.9-0.7-2.3 0-3.9 1.5-1.6 1.4-1.9 4z"/>
			<path class="s0" d="m606.7 31.7v10.7q0 1.3 0.6 1.9 0.5 0.5 1.9 0.5h2.3v2.6h-2.8q-2.5 0-3.8-1.2-1.2-1.2-1.2-3.8v-10.7h-2.4v-2.5h2.4v-4.6h3v4.6h4.8v2.5z"/>
			<path class="s0" d="m624.2 28.8q2.1 0 3.7 0.9 1.7 0.9 2.6 2.7 1 1.7 1 4.2v10.8h-3v-10.3q0-2.8-1.4-4.2-1.3-1.4-3.7-1.4-2.4 0-3.8 1.5-1.4 1.4-1.4 4.3v10.1h-3.1v-24.6h3.1v9q0.9-1.4 2.4-2.2 1.6-0.8 3.6-0.8z"/>
			<path class="s0" d="m653.1 37.6q0 0.8-0.1 1.8h-14.6q0.2 2.7 1.9 4.2 1.7 1.5 4.1 1.5 1.9 0 3.2-0.9 1.4-0.9 1.9-2.5h3.3q-0.8 2.7-3 4.3-2.2 1.7-5.4 1.7-2.6 0-4.7-1.2-2-1.2-3.2-3.3-1.2-2.2-1.2-5 0-2.8 1.2-4.9 1.1-2.1 3.1-3.3 2.1-1.1 4.8-1.1 2.6 0 4.6 1.1 2 1.1 3 3.1 1.1 2 1.1 4.5zm-3.1-0.7q0-1.7-0.8-2.9-0.7-1.3-2.1-1.9-1.3-0.7-2.9-0.7-2.3 0-3.9 1.5-1.6 1.4-1.8 4z"/>
			<path class="s0" d="m688 28.8q2.1 0 3.8 0.9 1.7 0.9 2.6 2.7 1 1.7 1 4.2v10.8h-3v-10.3q0-2.8-1.4-4.2-1.3-1.4-3.6-1.4-2.4 0-3.8 1.5-1.4 1.5-1.4 4.3v10.1h-3v-10.3q0-2.8-1.3-4.2-1.4-1.4-3.7-1.4-2.3 0-3.7 1.5-1.4 1.5-1.4 4.3v10.1h-3.1v-18.2h3.1v2.6q0.9-1.4 2.4-2.2 1.5-0.8 3.3-0.8 2.3 0 4.1 1.1 1.8 1 2.6 3 0.8-1.9 2.6-3 1.7-1.1 3.9-1.1z"/>
			<path class="s0" d="m716.6 29.2v18.2h-3.1v-2.7q-0.8 1.4-2.4 2.1-1.5 0.8-3.4 0.8-2.1 0-3.8-0.9-1.7-0.8-2.7-2.6-1-1.8-1-4.3v-10.6h3v10.2q0 2.7 1.4 4.2 1.3 1.4 3.7 1.4 2.4 0 3.8-1.5 1.4-1.5 1.4-4.3v-10z"/>
			<path class="s0" d="m728.2 47.7q-2.1 0-3.8-0.8-1.7-0.7-2.6-2-1-1.2-1.1-2.9h3.1q0.2 1.4 1.3 2.2 1.2 0.9 3 0.9 1.8 0 2.8-0.8 1-0.7 1-1.9 0-1.2-1.1-1.8-1.1-0.5-3.3-1.1-2-0.5-3.3-1.1-1.3-0.5-2.2-1.6-0.9-1.1-0.9-2.9 0-1.3 0.8-2.5 0.8-1.2 2.4-1.8 1.5-0.7 3.5-0.7 3 0 4.9 1.5 1.8 1.5 2 4.2h-3.1q-0.1-1.4-1.1-2.3-1.1-0.9-2.8-0.9-1.7 0-2.6 0.7-1 0.7-1 1.8 0 0.9 0.6 1.5 0.6 0.6 1.4 1 0.9 0.3 2.5 0.7 2 0.6 3.2 1.1 1.2 0.5 2.1 1.5 0.9 1.1 0.9 2.7 0 1.5-0.8 2.7-0.8 1.2-2.4 1.9-1.5 0.7-3.4 0.7z"/>
			<path class="s0" d="m740.7 26.2q-0.9 0-1.5-0.6-0.6-0.6-0.6-1.4 0-0.9 0.6-1.5 0.6-0.6 1.5-0.6 0.8 0 1.4 0.6 0.6 0.6 0.6 1.5 0 0.8-0.6 1.4-0.6 0.6-1.4 0.6zm1.4 3v18.2h-3v-18.2z"/>
			<path class="s0" d="m746.2 38.2q0-2.8 1.1-4.9 1.1-2.1 3.1-3.3 2.1-1.1 4.7-1.1 3.3 0 5.5 1.6 2.2 1.6 2.9 4.5h-3.3q-0.4-1.6-1.8-2.6-1.3-1-3.3-1-2.6 0-4.2 1.8-1.6 1.8-1.6 5 0 3.3 1.6 5.1 1.6 1.8 4.2 1.8 2 0 3.3-0.9 1.3-1 1.8-2.7h3.3q-0.7 2.8-2.9 4.5-2.2 1.7-5.5 1.7-2.6 0-4.7-1.2-2-1.2-3.1-3.3-1.1-2.1-1.1-5z"/>
			<path class="s0" d="m778 26.2q-0.9 0-1.5-0.6-0.6-0.6-0.6-1.4 0-0.9 0.6-1.5 0.6-0.6 1.5-0.6 0.8 0 1.4 0.6 0.6 0.6 0.6 1.5 0 0.8-0.6 1.4-0.6 0.6-1.4 0.6zm1.5 3v18.2h-3.1v-18.2z"/>
			<path class="s0" d="m791.1 47.7q-2.1 0-3.8-0.8-1.6-0.7-2.6-2-1-1.2-1.1-2.9h3.2q0.1 1.4 1.2 2.2 1.2 0.9 3.1 0.9 1.7 0 2.7-0.8 1-0.7 1-1.9 0-1.2-1.1-1.8-1-0.5-3.3-1.1-2-0.5-3.3-1.1-1.3-0.5-2.2-1.6-0.9-1.1-0.9-2.9 0-1.3 0.8-2.5 0.9-1.2 2.4-1.8 1.5-0.7 3.5-0.7 3 0 4.9 1.5 1.9 1.5 2 4.2h-3q-0.1-1.4-1.2-2.3-1-0.9-2.8-0.9-1.6 0-2.6 0.7-1 0.7-1 1.8 0 0.9 0.6 1.5 0.6 0.6 1.5 1 0.9 0.3 2.4 0.7 2 0.6 3.2 1.1 1.3 0.5 2.1 1.5 0.9 1.1 1 2.7 0 1.5-0.9 2.7-0.8 1.2-2.3 1.9-1.5 0.7-3.5 0.7z"/>
		</g>
	</g>
</svg>