<svg xmlns="http://www.w3.org/2000/svg" viewBox="0 0 512 512"><path fill="#00d7ff" d="M37.25 426.13c-5.88-6.9-9.36-16.2-9.36-26.35V112.22c0-10.15 3.48-19.45 9.36-26.35L247.88 296.5 37.25 426.13z"/><path fill="#ffcc00" d="M333.77 349.37L247.88 296.5l-36.96 37.68 49.68 49.68 73.17-34.49z"/><path fill="#ff3a44" d="M260.6 383.86l-49.68-49.68L37.25 485.79c9.89 5.29 21.99 3.97 30.45-.85l192.9-101.08z"/><path fill="#00e26a" d="M260.6 128.14l-192.9-101.08c-8.46-4.82-20.56-6.14-30.45-.85l173.67 151.61 49.68-49.68z"/><path fill="#ffcc00" d="M474.75 244.88l-73.17-34.49-67.81 41.75 67.81 41.75 73.17-34.49c13.22-6.22 13.22-28.3 0-34.52z"/></svg>






