<svg xmlns="http://www.w3.org/2000/svg" width="1355" height="98" fill="none" viewBox="0 0 1355 98">
<path fill="currentColor" d="M1033.59 45.52c0 11.111-1.32 28.382-23.52 28.382-22.19 0-24.039-17.27-24.039-28.383V2.142h-31.705v45.251c0 24.099 7.926 50.607 55.614 50.607 46.37 0 55.35-26.508 55.35-50.607V2.143h-31.7zM716.009 72.428V59.443h65.656v-22.09h-65.656V25.57h67.241V2.142h-99.475v93.716h100.268V72.429zM512.171 2.142v93.716h32.233V2.142zm-322.865 0-40.952 93.716h32.233l6.341-14.86h52.05l6.341 14.86h32.233L236.6 2.142zM1296.08 24.098c20.48 0 25.23 8.703 26.95 13.924h31.71C1351.3 15.128 1333.86 0 1295.82 0c-47.03 0-60.11 26.374-60.11 48.732 0 21.957 13.08 49.268 60.11 49.268 38.04 0 56.27-13.656 59.18-38.691h-31.71c-1.71 5.623-6.34 14.593-26.94 14.593-20.75 0-28.41-12.05-28.41-25.036 0-14.057 9.51-24.768 28.14-24.768M549.688 2.142l41.349 93.716h46.237l41.349-93.716h-34.48l-29.987 71.09-29.988-71.09zm319.959 55.694L845.736 2.142h-47.822v93.716h29.327v-62.79l28.138 62.79h28.799l28.006-62.79v62.79h28.931V2.142h-46.633zM1195.55 2.142l-.66 93.716h32.89V2.142zM71.733 57.836 47.822 2.142H0v93.716h29.327v-62.79l28.139 62.79h28.798l28.007-62.79v62.79h28.931V2.142H96.569zm201.856-28.115c0 15.263 8.323 27.446 41.613 29.186l21.269 1.071c10.965.536 16.381.803 16.381 6.426 0 5.891-6.209 10.31-24.968 10.31-24.967 0-24.571-11.247-24.967-14.058h-30.385C275.967 84.21 289.97 98 327.884 98c39.764 0 55.484-11.915 55.484-31.194 0-20.617-13.606-27.044-45.047-28.516l-20.873-.937c-7.794-.402-13.343-1.206-13.343-6.962 0-5.355 9.116-9.104 25.1-9.104 26.157 0 23.119 9.907 23.515 12.718h30.384C379.669 13.79 365.666 0 329.205 0c-41.216 0-55.616 12.853-55.616 29.721m118.102 0c0 15.263 8.323 27.446 41.613 29.186l21.269 1.071c10.965.536 16.381.803 16.381 6.426 0 5.891-6.209 10.31-24.968 10.31-24.968 0-24.571-11.247-24.968-14.058h-30.384C394.069 84.21 408.072 98 445.986 98c39.764 0 55.484-11.915 55.484-31.194 0-20.617-13.607-27.044-45.048-28.516l-20.872-.937c-7.794-.402-13.343-1.206-13.343-6.962 0-5.355 9.116-9.104 25.1-9.104 26.157 0 23.119 9.907 23.515 12.718h30.384C497.771 13.79 483.768 0 447.307 0c-41.217 0-55.616 12.853-55.616 29.721m683.909 0c0 15.263 8.32 27.446 41.61 29.186l21.27 1.071c10.96.536 16.38.803 16.38 6.426 0 5.891-6.21 10.31-24.97 10.31-24.96 0-24.57-11.247-24.96-14.058h-30.39C1077.98 84.21 1091.98 98 1129.89 98c39.77 0 55.49-11.915 55.49-31.194 0-20.617-13.61-27.044-45.05-28.516l-20.87-.937c-7.8-.402-13.35-1.206-13.35-6.962 0-5.355 9.12-9.104 25.1-9.104 26.16 0 23.12 9.907 23.52 12.718h30.38C1181.68 13.79 1167.68 0 1131.21 0c-41.21 0-55.61 12.853-55.61 29.721M198.025 57.97l14.928-34.005 14.928 34.005z"></path>
</svg>
